<svg width="36" height="36" viewBox="0 0 36 36" fill="none" xmlns="http://www.w3.org/2000/svg">
<path d="M24.25 18C24.25 18.1989 24.171 18.3897 24.0303 18.5303C23.8897 18.671 23.6989 18.75 23.5 18.75H12.5C12.3011 18.75 12.1103 18.671 11.9697 18.5303C11.829 18.3897 11.75 18.1989 11.75 18C11.75 17.8011 11.829 17.6103 11.9697 17.4697C12.1103 17.329 12.3011 17.25 12.5 17.25H23.5C23.6989 17.25 23.8897 17.329 24.0303 17.4697C24.171 17.6103 24.25 17.8011 24.25 18ZM12.5 14.75H23.5C23.6989 14.75 23.8897 14.671 24.0303 14.5303C24.171 14.3897 24.25 14.1989 24.25 14C24.25 13.8011 24.171 13.6103 24.0303 13.4697C23.8897 13.329 23.6989 13.25 23.5 13.25H12.5C12.3011 13.25 12.1103 13.329 11.9697 13.4697C11.829 13.6103 11.75 13.8011 11.75 14C11.75 14.1989 11.829 14.3897 11.9697 14.5303C12.1103 14.671 12.3011 14.75 12.5 14.75ZM23.5 21.25H12.5C12.3011 21.25 12.1103 21.329 11.9697 21.4697C11.829 21.6103 11.75 21.8011 11.75 22C11.75 22.1989 11.829 22.3897 11.9697 22.5303C12.1103 22.671 12.3011 22.75 12.5 22.75H23.5C23.6989 22.75 23.8897 22.671 24.0303 22.5303C24.171 22.3897 24.25 22.1989 24.25 22C24.25 21.8011 24.171 21.6103 24.0303 21.4697C23.8897 21.329 23.6989 21.25 23.5 21.25Z" fill="#1C1C1C"/>
</svg>
